<svg width="1024" height="1024" viewBox="0 0 1024 1024" fill="none" xmlns="http://www.w3.org/2000/svg">
<path d="M832 312H696V296C696 194.4 613.6 112 512 112C410.4 112 328 194.4 328 296V312H192C174.3 312 160 326.3 160 344V880C160 897.7 174.3 912 192 912H832C849.7 912 864 897.7 864 880V344C864 326.3 849.7 312 832 312ZM400 296C400 234.1 450.1 184 512 184C573.9 184 624 234.1 624 296V312H400V296ZM792 840H232V384H328V472C328 476.4 331.6 480 336 480H392C396.4 480 400 476.4 400 472V384H624V472C624 476.4 627.6 480 632 480H688C692.4 480 696 476.4 696 472V384H792V840Z" fill="#283618"/>
</svg>
