<svg width="140" height="140" viewBox="0 0 140 140" fill="none" xmlns="http://www.w3.org/2000/svg">
<circle cx="70" cy="70" r="70" fill="white"/>
<path d="M28.76 96V51.2H40.664V72.96H43.48L57.624 51.2H70.68L56.728 72.64L71.832 96H57.56L43.416 74.24H40.664V96H28.76ZM94.689 96.96C90.2943 96.96 86.433 96.256 83.105 94.848C79.8197 93.3973 77.2383 91.328 75.361 88.64C73.4837 85.952 72.481 82.7947 72.353 79.168H84.321C84.4917 80.8747 84.961 82.3253 85.729 83.52C86.5397 84.7147 87.6277 85.632 88.993 86.272C90.3583 86.912 92.001 87.232 93.921 87.232C96.6517 87.232 98.7637 86.72 100.257 85.696C101.75 84.672 102.497 83.2213 102.497 81.344C102.497 79.936 102.028 78.7413 101.089 77.76C100.15 76.7787 98.7423 75.9253 96.865 75.2C94.9877 74.4747 92.513 73.7707 89.441 73.088H89.377C86.0063 72.3627 83.233 71.5093 81.057 70.528C78.881 69.504 77.217 68.288 76.065 66.88C74.913 65.4293 74.337 63.744 74.337 61.824C74.337 59.52 75.1263 57.4933 76.705 55.744C78.3263 53.9947 80.5023 52.6507 83.233 51.712C86.0063 50.7307 89.1423 50.24 92.641 50.24C96.993 50.24 100.769 50.944 103.969 52.352C107.169 53.7173 109.665 55.7013 111.457 58.304C113.292 60.864 114.316 63.936 114.529 67.52H101.985C101.772 65.1733 100.876 63.36 99.297 62.08C97.761 60.8 95.6703 60.16 93.025 60.16C91.361 60.16 89.9317 60.3947 88.737 60.864C87.5423 61.2907 86.625 61.952 85.985 62.848C85.345 63.7013 85.025 64.7467 85.025 65.984C85.025 67.392 85.537 68.5653 86.561 69.504C87.6277 70.4 89.313 71.2533 91.617 72.064C93.921 72.8747 97.249 73.792 101.601 74.816C101.814 74.8587 101.985 74.9013 102.113 74.944C102.284 74.944 102.476 74.9653 102.689 75.008C102.732 75.0507 102.796 75.072 102.881 75.072C102.966 75.072 103.052 75.0933 103.137 75.136C105.484 75.6907 107.446 76.3733 109.025 77.184C110.604 77.9947 111.82 79.04 112.673 80.32C113.569 81.6 114.017 83.136 114.017 84.928C114.017 87.3173 113.206 89.4293 111.585 91.264C110.006 93.056 107.745 94.464 104.801 95.488C101.857 96.4693 98.4863 96.96 94.689 96.96Z" fill="#333333"/>
<path d="M23.76 96V51.2H35.664V72.96H38.48L52.624 51.2H65.68L51.728 72.64L66.832 96H52.56L38.416 74.24H35.664V96H23.76ZM89.689 96.96C85.2943 96.96 81.433 96.256 78.105 94.848C74.8197 93.3973 72.2383 91.328 70.361 88.64C68.4837 85.952 67.481 82.7947 67.353 79.168H79.321C79.4917 80.8747 79.961 82.3253 80.729 83.52C81.5397 84.7147 82.6277 85.632 83.993 86.272C85.3583 86.912 87.001 87.232 88.921 87.232C91.6517 87.232 93.7637 86.72 95.257 85.696C96.7503 84.672 97.497 83.2213 97.497 81.344C97.497 79.936 97.0277 78.7413 96.089 77.76C95.1503 76.7787 93.7423 75.9253 91.865 75.2C89.9877 74.4747 87.513 73.7707 84.441 73.088H84.377C81.0063 72.3627 78.233 71.5093 76.057 70.528C73.881 69.504 72.217 68.288 71.065 66.88C69.913 65.4293 69.337 63.744 69.337 61.824C69.337 59.52 70.1263 57.4933 71.705 55.744C73.3263 53.9947 75.5023 52.6507 78.233 51.712C81.0063 50.7307 84.1423 50.24 87.641 50.24C91.993 50.24 95.769 50.944 98.969 52.352C102.169 53.7173 104.665 55.7013 106.457 58.304C108.292 60.864 109.316 63.936 109.529 67.52H96.985C96.7717 65.1733 95.8757 63.36 94.297 62.08C92.761 60.8 90.6703 60.16 88.025 60.16C86.361 60.16 84.9317 60.3947 83.737 60.864C82.5423 61.2907 81.625 61.952 80.985 62.848C80.345 63.7013 80.025 64.7467 80.025 65.984C80.025 67.392 80.537 68.5653 81.561 69.504C82.6277 70.4 84.313 71.2533 86.617 72.064C88.921 72.8747 92.249 73.792 96.601 74.816C96.8143 74.8587 96.985 74.9013 97.113 74.944C97.2837 74.944 97.4757 74.9653 97.689 75.008C97.7317 75.0507 97.7957 75.072 97.881 75.072C97.9663 75.072 98.0517 75.0933 98.137 75.136C100.484 75.6907 102.446 76.3733 104.025 77.184C105.604 77.9947 106.82 79.04 107.673 80.32C108.569 81.6 109.017 83.136 109.017 84.928C109.017 87.3173 108.206 89.4293 106.585 91.264C105.006 93.056 102.745 94.464 99.801 95.488C96.857 96.4693 93.4863 96.96 89.689 96.96Z" fill="#9FC6A0"/>
</svg>
